<?xml version="1.0" standalone="no"?>
<!DOCTYPE svg PUBLIC "-//W3C//DTD SVG 20010904//EN"
 "http://www.w3.org/TR/2001/REC-SVG-20010904/DTD/svg10.dtd">
<svg version="1.0" xmlns="http://www.w3.org/2000/svg"
 width="1316.000000pt" height="1316.000000pt" viewBox="0 0 1316.000000 1316.000000"
 preserveAspectRatio="xMidYMid meet">
<metadata>
Created by potrace 1.11, written by Peter Selinger 2001-2013
</metadata>
<g transform="translate(0.000000,1316.000000) scale(0.100000,-0.100000)"
fill="#000000" stroke="none">
<path d="M9186 10791 c-4 -5 -27 -19 -54 -32 -26 -12 -49 -25 -52 -29 -3 -3
-16 -11 -30 -18 -14 -6 -32 -16 -40 -21 -12 -8 -154 -89 -315 -181 -121 -69
-409 -244 -603 -365 -85 -54 -434 -281 -447 -292 -6 -4 -37 -26 -70 -48 -33
-22 -61 -43 -63 -47 -2 -5 -10 -8 -18 -8 -8 0 -14 -4 -14 -10 0 -5 -6 -10 -12
-10 -7 0 -24 -9 -38 -21 -14 -11 -110 -81 -215 -156 -104 -74 -199 -144 -211
-154 -11 -11 -25 -19 -31 -19 -6 0 -13 -4 -15 -8 -1 -4 -70 -59 -153 -122 -82
-63 -159 -122 -170 -132 -33 -28 -97 -79 -215 -173 -41 -33 -84 -69 -96 -80
-12 -11 -32 -29 -45 -41 -80 -69 -184 -207 -224 -297 -61 -140 -68 -193 -70
-577 -1 -173 -5 -331 -9 -350 -4 -19 -8 -41 -8 -47 -1 -7 -5 -13 -10 -13 -5 0
-7 -4 -4 -8 7 -11 -26 -98 -53 -143 -12 -19 -24 -41 -28 -49 -4 -8 -17 -26
-30 -40 -13 -14 -23 -28 -23 -31 0 -11 -51 -27 -135 -44 -44 -8 -91 -18 -105
-21 -23 -5 -151 -30 -195 -39 -11 -2 -20 -4 -20 -5 0 -1 -9 -3 -20 -4 -11 -2
-47 -9 -80 -15 -33 -7 -70 -14 -82 -17 -31 -6 -56 -10 -143 -28 -41 -8 -82
-17 -90 -20 -8 -3 -33 -8 -54 -11 -21 -3 -49 -8 -61 -11 -19 -5 -25 6 -67 131
-51 146 -51 166 -6 224 39 51 76 65 168 64 50 -1 103 -7 127 -16 23 -9 45 -13
47 -8 9 13 -5 94 -21 125 -25 49 -82 94 -169 136 -45 22 -87 40 -93 40 -5 0
-32 21 -58 48 -56 54 -73 105 -67 202 4 69 25 116 56 126 48 15 125 5 208 -27
85 -33 203 -92 231 -115 23 -20 35 -17 36 9 3 28 -25 138 -39 155 -6 6 -8 12
-4 12 13 0 -49 98 -88 138 -35 37 -128 92 -155 92 -21 0 -103 75 -123 113 -26
50 -33 172 -10 186 8 5 13 12 11 16 -4 14 63 75 85 77 70 5 137 -12 211 -52
40 -22 142 -60 161 -60 38 0 -1 163 -62 255 -50 76 -92 111 -179 148 -150 65
-168 83 -140 142 27 55 107 78 266 77 l97 -1 -16 32 c-28 56 -115 132 -199
172 -43 21 -85 41 -93 45 -9 4 -30 11 -47 14 -39 9 -37 6 -122 154 -83 145
-93 173 -75 223 17 52 93 169 109 169 7 0 15 3 17 8 2 4 28 23 58 42 30 19 57
37 60 40 3 3 56 38 118 79 62 41 111 76 109 77 -2 2 -27 6 -57 8 -50 4 -75 19
-63 39 3 4 6 27 8 50 3 42 11 113 20 177 3 19 8 58 10 85 3 28 8 56 10 63 6
17 -12 15 -18 -2 -9 -23 -108 -92 -157 -109 -64 -22 -281 -89 -305 -93 -154
-29 -375 -127 -449 -199 -35 -34 -37 -34 -108 -30 -102 5 -363 18 -423 19 -27
1 -56 5 -62 9 -8 5 -13 3 -13 -3 0 -6 -5 -8 -11 -4 -11 7 -80 10 -340 18 -124
4 -175 0 -234 -18 -5 -2 -23 -6 -40 -11 -51 -13 -140 -61 -171 -91 -36 -36
-68 -87 -84 -136 -6 -21 -15 -38 -18 -39 -4 0 -23 -2 -42 -4 -19 -2 -80 -6
-135 -10 -104 -7 -115 -8 -230 -19 -38 -4 -90 -10 -115 -12 -25 -3 -58 -7 -75
-10 -16 -3 -41 -8 -55 -10 -62 -8 -102 -18 -196 -49 -106 -35 -254 -103 -254
-117 0 -4 -5 -8 -12 -8 -29 0 -258 -205 -258 -232 0 -5 19 -6 43 -4 23 3 74 8
112 11 39 3 88 8 110 11 118 16 404 23 485 12 148 -21 246 -88 284 -194 26
-75 30 -79 73 -82 29 -2 52 -13 82 -39 23 -19 43 -34 45 -32 8 11 30 75 28 82
-5 15 22 6 55 -19 l33 -25 10 27 c6 14 11 37 12 50 3 29 15 30 48 4 29 -22 52
-26 49 -7 -1 6 -1 34 0 60 l1 49 49 -36 c27 -20 51 -36 54 -36 2 0 5 24 6 53
3 111 3 112 36 111 70 -3 196 -30 237 -51 15 -7 29 -12 30 -11 2 1 24 -9 49
-21 56 -28 140 -105 157 -144 15 -34 15 -34 0 -34 -7 0 -32 -3 -54 -7 -23 -4
-57 -9 -75 -11 -19 -3 -45 -7 -59 -10 -14 -3 -45 -7 -70 -10 -25 -3 -56 -7
-70 -10 -14 -2 -52 -7 -85 -11 -65 -6 -108 -11 -170 -18 -22 -3 -75 -8 -118
-11 -43 -3 -104 -8 -135 -11 -256 -27 -957 -39 -1222 -20 -69 5 -131 9 -137 9
-7 0 -13 2 -13 3 0 1 68 35 150 75 142 69 166 85 138 87 -7 0 -24 3 -38 6 -14
3 -50 11 -80 16 -30 6 -68 15 -85 20 -26 7 -89 19 -112 22 -5 0 -19 5 -33 10
-14 5 -36 12 -50 15 -76 14 -360 118 -371 136 -4 5 -11 7 -17 3 -6 -3 -12 -3
-14 1 -1 5 -32 23 -68 42 -36 19 -72 40 -81 47 -8 8 -21 14 -27 14 -7 0 -12 5
-12 10 0 6 -7 10 -15 10 -8 0 -15 5 -15 10 0 6 -7 10 -15 10 -8 0 -15 4 -15 8
0 4 -13 16 -30 25 l-29 18 14 -43 c9 -24 18 -50 22 -58 3 -8 7 -17 8 -20 8
-35 132 -252 167 -295 5 -5 25 -32 46 -60 20 -27 42 -55 47 -61 6 -6 30 -35
55 -64 81 -95 259 -267 329 -320 19 -14 49 -38 69 -55 19 -16 37 -28 40 -27 3
2 8 0 11 -6 15 -23 151 -89 151 -74 0 5 -15 34 -34 65 -19 31 -32 57 -30 57 3
0 -3 12 -14 28 -11 15 -27 41 -36 59 l-16 32 102 -5 c57 -2 164 -6 238 -9 74
-2 135 -5 135 -6 0 0 43 -2 97 -4 53 -2 143 -6 200 -9 56 -3 173 -9 258 -12
85 -3 158 -9 161 -12 8 -9 27 -86 34 -134 9 -65 25 -129 41 -159 8 -16 12 -29
9 -29 -3 0 3 -10 15 -22 24 -26 22 -17 24 -143 2 -107 12 -140 59 -184 24 -21
55 -22 42 0 -4 5 -3 9 2 9 4 0 19 28 31 63 13 34 30 76 37 92 7 17 25 64 40
105 15 41 34 90 42 108 l14 33 39 -81 c58 -118 61 -120 86 -45 45 133 148 245
288 314 129 64 206 76 206 33 0 -10 4 -22 9 -28 5 -5 18 -31 29 -59 11 -27 23
-58 27 -67 5 -13 -1 -20 -27 -31 -52 -22 -115 -92 -155 -174 -30 -61 -38 -88
-39 -142 -2 -36 2 -71 8 -78 13 -16 3 -43 -15 -43 -8 0 -29 -17 -49 -38 -75
-81 -128 -206 -128 -304 l0 -58 -70 -68 c-65 -63 -126 -153 -113 -166 4 -3 2
-6 -4 -6 -5 0 -10 -6 -11 -12 0 -7 -4 -35 -9 -63 -5 -27 -8 -79 -6 -114 2 -36
0 -62 -3 -58 -8 7 -61 -28 -86 -58 -22 -25 -67 -113 -74 -145 -9 -42 -12 -55
-14 -55 -9 0 -15 -211 -9 -305 1 -15 -7 -30 -20 -38 -11 -8 -21 -20 -21 -27 0
-7 -6 -18 -14 -24 -17 -14 -54 -90 -71 -147 -22 -73 -17 -219 11 -306 25 -77
77 -165 122 -205 28 -24 28 -26 -35 -89 -35 -35 -62 -83 -69 -122 -7 -37 -13
-43 -32 -34 -36 18 -103 3 -140 -31 -14 -13 -26 -18 -30 -11 -17 24 -101 84
-143 102 -56 24 -130 23 -158 -2 -19 -17 -20 -17 -41 25 -56 109 -163 179
-295 194 -16 2 -33 4 -37 4 -3 1 -5 9 -4 18 5 30 -13 104 -35 149 -29 56 -81
106 -146 139 -29 14 -54 31 -54 38 -1 7 -3 26 -4 42 -2 17 -6 55 -9 85 -3 30
-6 55 -7 55 -1 0 -8 40 -13 85 -2 19 -9 54 -15 78 -7 24 -14 56 -16 72 -2 16
-6 34 -10 40 -3 6 -9 22 -11 37 -10 52 -65 182 -97 224 -27 37 -32 52 -31 100
0 91 31 128 204 242 89 59 113 107 118 237 3 59 12 118 24 155 27 80 31 179 8
225 -21 41 -58 83 -88 99 -21 11 -22 9 -22 -26 -2 -139 -84 -303 -153 -303
-18 0 -40 -17 -80 -62 -31 -35 -58 -61 -60 -58 -15 15 -13 74 5 121 37 105 48
155 47 217 -1 34 -6 65 -10 68 -5 3 -9 14 -9 25 0 10 -4 19 -10 19 -5 0 -10 5
-10 10 0 15 -105 181 -137 215 -72 79 -173 132 -261 140 l-45 3 29 -24 c49
-41 94 -88 94 -98 0 -5 6 -17 14 -25 35 -40 68 -219 46 -246 -12 -15 -70 -222
-77 -275 -12 -98 -8 -246 9 -328 9 -46 20 -87 23 -92 4 -6 2 -10 -2 -10 -9 0
-70 124 -98 200 -10 25 -26 64 -36 87 -10 24 -19 49 -19 56 0 7 -4 17 -8 22
-5 6 -15 26 -22 45 -26 65 -80 149 -101 155 -12 4 -45 29 -75 56 -105 95 -171
122 -298 121 -43 -1 -80 -3 -83 -5 -2 -3 15 -15 39 -27 73 -38 121 -96 162
-195 14 -33 14 -36 -7 -55 -36 -34 -33 -102 8 -177 25 -45 36 -80 39 -124 11
-131 102 -246 243 -309 31 -14 41 -23 39 -37 -2 -10 -7 -50 -11 -88 -4 -39 -8
-83 -10 -100 -2 -16 -6 -55 -9 -85 -4 -30 -8 -75 -11 -100 -2 -25 -6 -65 -10
-90 -3 -25 -7 -65 -9 -90 -3 -25 -7 -67 -11 -95 -7 -57 -13 -112 -14 -137 -1
-10 -5 -18 -11 -18 -19 0 -52 -36 -102 -115 -91 -142 -101 -156 -121 -167 -86
-46 -135 -148 -81 -168 32 -13 36 -25 20 -65 -8 -19 -12 -35 -9 -35 3 0 0 -7
-7 -15 -7 -8 -9 -15 -6 -15 7 0 5 -4 -44 -61 -37 -45 -138 -92 -194 -90 -16 0
-17 -2 -5 -13 21 -20 90 -34 155 -30 100 5 136 21 216 96 23 22 55 40 75 44
33 6 103 57 103 74 0 5 5 21 12 37 12 31 12 29 28 98 16 70 41 123 85 181 21
27 57 90 80 139 l42 90 8 -45 c4 -25 10 -49 13 -55 4 -5 7 -15 8 -22 4 -23 26
-88 44 -128 9 -22 22 -56 29 -75 21 -67 123 -255 197 -365 102 -153 178 -237
318 -349 51 -41 122 -107 157 -147 35 -40 75 -84 89 -99 14 -14 43 -48 65 -76
22 -27 50 -60 62 -74 13 -14 23 -28 23 -32 0 -4 13 -21 30 -38 16 -17 30 -32
30 -34 0 -2 28 -47 63 -99 71 -109 112 -176 113 -185 0 -4 15 -37 32 -74 82
-173 119 -337 131 -576 1 -13 80 66 81 80 0 4 6 13 13 20 45 48 137 233 187
378 19 52 34 96 35 97 3 5 192 53 225 57 19 3 35 5 35 6 0 3 156 20 220 24 17
1 36 5 43 10 6 4 12 4 12 -1 0 -4 58 -7 130 -6 l129 2 -20 -51 c-11 -29 -22
-56 -25 -60 -14 -22 -14 -92 0 -119 14 -28 14 -30 -15 -44 -16 -9 -29 -12 -29
-8 0 5 -4 3 -8 -2 -4 -6 -19 -18 -35 -28 -15 -10 -39 -36 -54 -58 -33 -50 -39
-133 -15 -193 l16 -40 -29 -20 c-90 -65 -164 -164 -168 -226 -1 -17 -4 -30 -7
-30 -3 0 -7 -30 -9 -67 -5 -106 -6 -109 -33 -145 -127 -166 -296 -305 -423
-348 -59 -20 -63 -21 -154 -25 -80 -4 -248 22 -292 45 -8 5 -27 10 -41 12 -14
2 -32 8 -39 14 -24 18 -132 71 -199 98 -72 29 -151 42 -175 29 -11 -6 -34 0
-73 19 -63 31 -136 48 -185 42 -55 -6 -82 -13 -85 -24 -2 -5 -10 -10 -17 -10
-17 0 -49 -44 -74 -103 -18 -41 -18 -45 -3 -40 9 4 19 9 22 13 9 11 90 40 113
40 28 0 96 -36 119 -62 13 -15 16 -31 11 -63 -4 -36 -2 -46 16 -61 28 -25 26
-32 -19 -79 l-39 -39 -123 -1 c-132 -1 -165 -10 -241 -62 -40 -28 -97 -114
-97 -147 0 -17 1 -17 25 -2 79 52 279 56 395 9 8 -4 35 -14 60 -23 41 -15 45
-20 47 -51 1 -19 4 -46 6 -60 3 -23 1 -26 -27 -26 -42 0 -116 -37 -154 -76
-30 -32 -79 -119 -88 -157 -2 -11 -7 -30 -10 -43 -19 -74 -20 -73 23 -31 92
90 222 152 298 140 20 -4 53 -19 73 -35 50 -40 128 -53 232 -38 64 9 73 12 87
20 7 5 13 6 13 2 0 -3 14 1 30 10 17 9 30 12 30 8 0 -5 4 -3 8 3 4 5 23 18 44
27 20 9 63 37 97 63 121 91 244 118 386 85 112 -27 172 -22 236 18 98 61 116
69 168 75 29 3 56 8 61 11 6 4 10 1 10 -5 0 -6 4 -9 9 -6 5 3 33 -2 62 -11 30
-9 57 -16 62 -15 4 1 7 -2 7 -8 0 -5 15 -16 33 -23 17 -8 55 -34 82 -59 89
-80 308 -131 401 -92 19 8 37 15 41 16 5 0 25 11 45 24 59 37 108 45 200 30
10 -1 21 -6 25 -10 5 -4 23 -14 40 -21 18 -8 33 -19 33 -24 0 -6 7 -11 16 -11
13 0 15 7 11 33 -23 143 -126 226 -294 236 -7 1 -22 12 -35 25 -26 26 -69 42
-111 41 -15 -1 -27 2 -27 5 0 3 -15 5 -32 5 -44 1 -171 16 -180 21 -4 3 -20 7
-35 9 -32 5 -87 25 -120 43 l-21 12 25 82 c38 125 101 277 146 353 92 155 119
186 452 520 133 132 256 258 275 281 19 23 53 63 75 89 22 27 47 56 55 64 8 9
23 29 33 45 23 35 30 28 33 -32 1 -26 3 -47 4 -47 1 0 4 -13 6 -28 6 -37 50
-157 85 -235 16 -34 29 -67 29 -72 0 -6 5 -10 10 -10 6 0 10 -4 10 -9 0 -6 18
-49 41 -98 57 -123 62 -133 64 -130 7 8 99 180 100 187 1 3 10 25 20 50 11 25
18 47 16 49 -1 2 1 7 6 10 10 6 48 133 58 192 5 28 14 39 43 54 20 11 61 34
90 52 28 18 55 32 58 32 4 0 10 3 13 8 3 4 34 30 68 56 40 31 67 45 75 40 41
-26 125 -34 198 -20 64 13 262 106 313 147 131 106 213 161 231 157 12 -3 32
-8 46 -12 14 -3 43 -8 65 -10 22 -2 45 -4 50 -5 6 -1 12 -1 15 0 3 1 26 3 53
5 26 2 53 7 59 11 23 14 65 14 65 -1 0 -8 -3 -15 -6 -15 -20 0 -21 -201 -2
-224 8 -9 10 -16 7 -16 -4 0 12 -27 34 -60 63 -93 164 -164 322 -228 19 -8 30
-22 37 -50 24 -88 99 -154 212 -187 78 -22 139 -30 299 -39 72 -4 70 -4 70
-21 0 -29 66 -85 123 -104 30 -11 57 -17 60 -15 3 3 8 1 11 -4 3 -5 -14 -18
-37 -30 -79 -39 -128 -108 -132 -182 l-1 -34 -77 -14 c-42 -8 -77 -18 -77 -23
0 -5 -6 -9 -14 -9 -20 0 -74 -67 -81 -101 -8 -37 -17 -42 -84 -45 -90 -4 -185
-15 -246 -28 -45 -10 -134 -40 -152 -51 -25 -17 -69 -26 -78 -17 -3 3 -18 8
-33 9 -46 6 -165 45 -212 69 -25 13 -51 24 -57 24 -7 0 -13 5 -13 10 0 6 -5
10 -11 10 -23 0 -130 95 -222 198 -21 23 -43 42 -50 42 -7 0 -38 18 -71 40
-33 22 -71 40 -86 40 -27 0 -73 -34 -82 -60 -3 -10 -9 -10 -23 -2 -40 22 -82
29 -142 26 -69 -4 -102 -15 -145 -46 -35 -24 -90 -97 -83 -109 3 -4 1 -10 -5
-14 -5 -3 -10 -15 -10 -26 0 -20 0 -20 29 0 15 11 31 18 35 14 3 -3 6 -1 6 5
0 12 69 39 116 46 35 4 101 -21 124 -48 7 -10 15 -32 16 -49 3 -40 48 -78 113
-97 25 -7 51 -15 56 -19 6 -3 19 -7 30 -8 54 -8 140 -35 182 -57 57 -29 143
-103 143 -122 0 -8 4 -14 10 -14 5 0 12 -11 16 -25 3 -14 11 -25 18 -26 6 -1
-8 -7 -31 -14 -26 -8 -77 -12 -135 -10 -107 3 -189 30 -276 89 -90 60 -183 74
-273 40 -24 -9 -55 -16 -69 -15 -14 1 -49 2 -78 1 -122 0 -257 -111 -292 -240
-13 -50 -10 -56 18 -33 11 10 30 26 43 37 35 29 103 56 146 57 41 1 106 -20
86 -28 -7 -3 -13 -13 -13 -23 0 -21 9 -28 70 -61 25 -13 47 -27 50 -30 3 -3
10 -8 15 -10 6 -2 34 -17 63 -34 50 -29 65 -45 40 -45 -23 0 -114 -49 -134
-73 -28 -32 -45 -84 -44 -138 0 -38 4 -85 9 -98 0 -2 11 9 23 25 63 81 121
109 226 109 47 0 86 -5 90 -11 4 -5 18 -18 31 -27 21 -14 27 -14 50 -2 14 8
40 26 56 40 42 37 129 80 205 101 73 19 139 33 187 39 31 3 60 8 63 10 3 1 32
5 65 9 33 3 73 9 89 12 24 4 99 13 141 16 35 2 128 -16 172 -33 l52 -21 68 28
c95 39 191 44 264 13 30 -12 62 -29 73 -38 10 -9 20 -15 22 -14 7 5 84 -32 84
-39 0 -5 4 -8 10 -8 5 0 40 -20 77 -44 136 -88 230 -100 341 -45 116 57 224
41 316 -49 l39 -37 -6 40 c-7 59 -11 69 -32 101 -41 64 -117 108 -240 141 -38
10 -99 35 -134 56 -73 45 -77 46 -196 52 -49 3 -101 7 -115 9 -69 10 -111 20
-116 27 -3 5 -10 7 -15 4 -5 -4 -9 -2 -9 4 0 5 15 13 33 16 17 4 38 12 46 19
8 6 16 10 18 8 6 -6 67 10 80 20 7 5 17 7 23 3 5 -3 10 -1 10 4 0 6 7 11 16
11 34 0 284 113 409 185 154 89 336 227 465 355 71 70 209 229 255 294 11 15
34 47 52 71 18 23 29 45 26 49 -4 3 -2 6 3 6 5 0 18 14 27 30 17 28 45 39 60
23 7 -6 99 -41 127 -48 8 -2 47 -15 85 -30 39 -15 79 -28 90 -30 35 -6 59 -13
90 -26 17 -7 33 -12 38 -11 4 1 7 -3 7 -10 0 -6 3 -9 6 -5 4 3 22 0 40 -8 18
-7 35 -11 37 -7 14 25 -13 190 -36 220 -5 6 -6 12 -1 12 5 0 5 4 -1 8 -5 4
-18 22 -29 41 -17 30 -46 62 -93 102 -23 19 -129 69 -158 75 -5 1 -14 3 -20 4
-5 2 -14 4 -20 5 -5 1 -27 5 -47 9 -20 5 -51 9 -70 10 -18 2 -50 10 -72 19
-21 10 -41 17 -45 17 -5 0 -130 47 -186 70 -71 30 -235 90 -245 90 -20 0 -72
62 -96 114 -34 74 -38 101 -38 206 0 140 28 191 170 305 70 57 107 96 146 151
32 45 38 49 69 46 19 -2 81 -25 139 -52 58 -26 117 -51 132 -54 16 -4 34 -18
43 -34 23 -42 55 -74 115 -113 112 -72 211 -102 338 -100 46 0 82 -3 82 -9 0
-5 29 -24 65 -41 59 -28 93 -40 165 -55 67 -14 207 -5 290 20 43 13 46 12 80
-15 42 -33 124 -75 165 -85 78 -17 189 -13 263 11 40 13 75 19 78 14 12 -19
104 -59 156 -67 29 -4 72 -5 95 -2 50 7 51 6 83 -40 36 -54 117 -128 158 -145
21 -9 32 -19 26 -23 -26 -16 -35 -127 -20 -232 7 -46 35 -138 52 -172 12 -24
12 -32 0 -62 -28 -67 -37 -206 -16 -260 10 -27 8 -31 -51 -76 -18 -14 -45 -42
-60 -62 -23 -33 -26 -46 -24 -101 1 -35 8 -73 14 -86 9 -16 10 -30 2 -53 -12
-33 -87 -127 -135 -167 -15 -14 -34 -31 -42 -39 -8 -7 -14 -10 -14 -5 0 4 -4
3 -8 -3 -14 -22 -109 -62 -167 -71 -47 -6 -123 -4 -165 7 -25 6 -49 12 -55 13
-24 6 -125 60 -125 67 0 4 -11 11 -25 14 -14 4 -25 11 -25 16 0 6 -5 10 -11
10 -25 0 -135 88 -258 209 -74 72 -143 132 -153 132 -65 5 -78 1 -95 -29 -15
-27 -19 -28 -91 -26 -99 1 -165 -20 -214 -69 -51 -52 -84 -165 -35 -118 30 28
56 34 142 34 92 0 185 -43 145 -68 -14 -9 -12 -51 3 -62 9 -8 296 -133 501
-218 21 -9 36 -18 33 -21 -2 -3 -20 2 -38 10 -33 14 -64 26 -84 32 -5 2 -57
21 -115 44 -131 51 -127 51 -230 54 -102 3 -138 -5 -176 -40 -16 -15 -56 -38
-89 -52 -161 -65 -219 -120 -244 -233 -5 -24 -8 -46 -6 -50 3 -3 24 13 48 36
60 57 127 74 255 64 26 -2 42 -8 42 -16 0 -7 6 -14 13 -14 62 -6 395 -22 484
-23 46 -1 83 -3 83 -6 0 -4 17 -4 38 -2 20 3 34 1 31 -2 -7 -8 -38 -15 -89
-21 -36 -5 -81 -12 -115 -19 -77 -16 -175 -89 -175 -130 0 -15 -7 -22 -21 -23
-86 -7 -178 -81 -226 -183 -14 -32 -43 -120 -38 -120 2 0 33 16 69 36 142 76
310 118 389 96 32 -9 39 -7 62 14 14 13 32 24 39 24 8 0 17 7 20 16 3 8 10 13
15 10 5 -4 11 -3 13 1 5 12 66 53 78 53 5 0 10 3 10 8 0 15 105 65 171 82 112
29 251 18 284 -23 13 -15 47 -32 105 -49 61 -19 152 -7 232 30 55 25 135 53
203 69 84 20 258 3 329 -32 16 -8 35 -15 43 -15 7 0 13 -4 13 -10 0 -5 4 -10
9 -10 5 0 59 -30 119 -66 117 -70 122 -70 170 -27 7 7 21 14 30 14 153 11 226
-12 326 -100 l29 -26 -13 25 c-8 14 -12 25 -9 25 6 0 -33 98 -50 125 -43 67
-156 150 -204 150 -9 0 -28 11 -44 24 -16 14 -72 41 -124 61 -208 81 -223 88
-236 103 -7 8 -10 18 -8 23 3 4 0 11 -5 14 -6 4 -26 37 -44 74 -38 78 -40 126
-6 186 12 21 24 47 26 57 8 34 14 63 19 93 4 17 12 57 20 90 8 33 17 74 20 90
6 34 12 69 20 105 10 48 15 75 21 110 7 47 13 81 18 105 4 19 7 41 23 170 9
74 10 352 1 420 -11 77 -44 250 -48 250 -2 0 -5 14 -14 52 -2 12 -10 31 -16
42 -6 12 -8 21 -5 21 3 0 -2 14 -11 31 -9 18 -12 35 -7 40 9 9 128 -65 180
-111 15 -14 39 -32 53 -41 14 -9 35 -26 48 -37 12 -11 56 -36 96 -56 58 -29
87 -37 133 -38 76 -1 121 9 125 30 9 41 -91 165 -209 260 -23 19 -258 181
-296 204 -76 47 -229 138 -232 138 -4 0 -69 37 -135 78 -14 9 -27 15 -30 15
-3 -1 -12 4 -20 11 -8 7 -40 26 -70 42 -30 16 -58 33 -62 39 -4 5 -8 6 -8 2 0
-5 -13 1 -29 12 -16 12 -31 21 -34 21 -3 0 -36 17 -74 38 -61 35 -128 71 -303
165 -70 37 -75 42 -42 43 117 7 152 10 152 15 0 3 10 5 23 4 12 -1 38 2 57 7
19 4 54 10 76 13 49 7 64 10 124 24 25 7 56 14 70 17 14 2 32 7 40 10 8 3 26
8 40 10 14 3 32 7 40 11 8 3 17 7 20 8 3 0 43 14 90 29 47 16 90 29 95 30 6 2
27 10 49 19 21 9 40 17 42 17 11 0 188 86 269 130 268 147 505 342 616 505 13
19 27 35 32 35 4 0 7 6 7 14 0 7 6 19 14 25 12 11 41 60 77 133 5 10 13 27 19
37 11 23 44 123 55 166 17 73 20 97 19 225 0 114 -5 151 -27 238 -15 56 -36
117 -46 135 -40 73 -45 49 79 427 23 69 43 134 45 145 3 11 9 31 14 45 9 25
18 51 20 60 9 42 48 139 56 137 5 -1 31 -33 57 -72 99 -148 259 -281 426 -357
35 -15 66 -28 68 -28 3 0 -2 12 -10 28 -12 23 -50 129 -61 172 -12 42 -46 195
-51 227 -3 19 -8 45 -10 57 -12 59 -27 156 -29 191 -2 22 -6 58 -8 80 -25 190
-29 263 -33 617 -2 187 1 310 7 313 6 4 5 13 -1 24 -5 10 -8 20 -5 22 2 2 6
39 10 81 9 120 15 171 21 192 10 31 -12 11 -89 -82 -40 -48 -82 -98 -94 -112
-12 -14 -30 -34 -40 -46 -69 -81 -132 -153 -158 -180 -16 -17 -67 -72 -111
-120 -45 -49 -116 -125 -158 -168 -42 -44 -76 -80 -76 -81 0 -6 -236 -235
-242 -235 -4 0 -8 -4 -8 -8 0 -9 -113 -122 -358 -358 -78 -75 -141 -139 -139
-140 1 -2 16 -5 32 -8 114 -21 283 -26 420 -11 44 4 94 9 111 10 17 1 35 4 40
6 5 3 24 5 42 5 17 -1 32 1 32 4 0 3 11 5 25 5 14 0 25 -3 25 -6 0 -6 -9 -25
-96 -204 -32 -66 -59 -122 -59 -125 -1 -3 -12 -26 -25 -52 l-25 -46 -87 42
c-73 36 -130 57 -278 104 -8 3 -24 6 -35 8 -11 1 -33 5 -50 9 -97 19 -242 25
-339 12 -39 -5 -83 -10 -98 -11 -16 0 -28 -4 -28 -8 0 -5 -9 -8 -20 -8 -29 0
-135 -38 -205 -72 -154 -77 -276 -202 -329 -338 -45 -113 -41 -278 9 -423 42
-122 135 -230 245 -284 87 -43 97 -46 200 -69 105 -23 377 -19 513 7 28 5 69
12 90 14 22 3 42 7 46 9 3 2 27 7 53 10 l46 6 -9 -34 c-50 -179 -235 -288
-549 -322 -75 -8 -358 -9 -465 -1 -117 9 -126 10 -142 20 -6 4 -14 3 -18 -3
-4 -6 -11 -7 -17 -4 -6 4 -25 9 -42 11 -31 3 -123 19 -161 27 -11 3 -51 14
-90 26 -38 12 -79 23 -90 25 -11 3 -31 7 -45 10 -14 4 -36 8 -50 11 -14 3 -32
7 -41 10 -9 2 -34 7 -55 9 -40 5 -108 13 -159 20 -130 18 -771 27 -792 12 -6
-4 -14 -4 -17 2 -3 5 -15 7 -26 4 -18 -5 -20 -2 -16 20 5 27 59 113 99 157 36
40 133 120 146 120 6 0 11 4 11 9 0 15 237 127 309 146 35 9 73 19 85 21 12 2
32 6 46 10 76 17 280 12 368 -10 26 -6 24 -1 -25 54 -13 14 -23 28 -23 32 0 3
-6 13 -12 20 -13 14 -24 31 -57 92 -15 27 -54 122 -56 136 -1 3 -7 30 -15 60
-7 30 -13 100 -13 155 0 92 2 122 17 183 3 12 8 30 10 40 27 112 128 304 209
393 9 10 17 22 17 25 0 10 185 191 243 237 108 87 238 169 367 232 77 38 143
67 160 70 8 2 16 4 18 5 1 2 5 3 10 5 4 1 20 7 35 13 16 7 33 12 38 12 5 0 9
5 9 11 0 6 -7 9 -15 5 -8 -3 -15 -1 -15 4 0 6 -7 10 -15 10 -8 0 -55 21 -106
47 -201 104 -280 245 -235 420 47 185 186 361 522 663 52 47 221 181 327 260
88 65 103 81 51 56 -16 -8 -92 -40 -169 -71 -77 -31 -153 -63 -170 -70 -16 -7
-81 -34 -143 -59 -63 -26 -139 -57 -170 -70 -73 -29 -96 -39 -102 -41 -12 -4
-48 -19 -90 -37 -25 -11 -130 -53 -235 -94 -104 -41 -198 -78 -207 -84 -10 -5
-25 -10 -33 -10 -8 0 -15 -4 -15 -8 0 -4 -8 -8 -17 -9 -10 -1 -31 -7 -48 -14
-16 -7 -32 -13 -35 -14 -3 -1 -18 -7 -33 -13 -16 -7 -35 -12 -43 -12 -8 0 -14
-3 -14 -7 0 -5 -28 -17 -63 -27 -34 -10 -67 -23 -73 -28 -7 -5 -20 -11 -30
-13 -11 -2 -85 -27 -166 -54 -81 -28 -166 -53 -189 -56 -24 -3 -44 -7 -47 -9
-5 -5 -137 30 -174 47 -16 7 -28 15 -28 19 0 5 -5 8 -11 8 -6 0 -24 14 -41 31
-87 86 -120 187 -113 348 2 58 6 118 9 133 7 43 58 222 66 233 4 6 11 21 15
35 11 36 56 130 78 163 15 22 16 27 3 27 -8 0 -17 -4 -20 -9z m759 -7751 c3
-5 1 -10 -4 -10 -6 0 -11 5 -11 10 0 6 2 10 4 10 3 0 8 -4 11 -10z m45 -20 c0
-5 -2 -10 -4 -10 -3 0 -8 5 -11 10 -3 6 -1 10 4 10 6 0 11 -4 11 -10z"/>
</g>
</svg>
